<?xml version="1.0" encoding="utf-8"?>
<!-- Generator: Adobe Illustrator 22.1.0, SVG Export Plug-In . SVG Version: 6.00 Build 0)  -->
<svg version="1.1" id="Layer_1" xmlns="http://www.w3.org/2000/svg" xmlns:xlink="http://www.w3.org/1999/xlink" x="0px" y="0px"
	 viewBox="0 0 512 512" style="enable-background:new 0 0 512 512;" xml:space="preserve">
<style type="text/css">
	.st0{fill:#1C1C1B;}
</style>
<path d="M256,8C119,8,8,119.1,8,256c0,137,111,248,248,248s248-111,248-248C504,119.1,393,8,256,8z M256,456
	c-110.5,0-200-89.4-200-200c0-110.5,89.5-200,200-200s200,89.5,200,200S366.6,456,256,456z"/>
<path class="st0" d="M117.3,254c0.3,7.8,3.2,15.6,8.9,21.8l79.5,86.4c12.7,13.8,34.2,14.7,48,2c13.8-12.7,14.7-34.2,2-48l-31.2-33.9
	h139.9c16.4,0,29.6-13.3,29.6-29.6S380.7,223,364.4,223H224.5l31.2-33.9c12.7-13.8,11.8-35.3-2-48c-13.8-12.7-35.3-11.8-48,2
	l-79.5,86.4c-5.7,6.2-8.6,14-8.9,21.8c0,0.5,0,0.9,0,1.4C117.3,253.1,117.3,253.6,117.3,254z"/>
</svg>
