<?xml version="1.0" encoding="utf-8"?>
<!-- Generator: Adobe Illustrator 22.1.0, SVG Export Plug-In . SVG Version: 6.00 Build 0)  -->
<svg version="1.1" id="Layer_1" xmlns="http://www.w3.org/2000/svg" xmlns:xlink="http://www.w3.org/1999/xlink" x="0px" y="0px"
	 viewBox="0 0 512 512" style="enable-background:new 0 0 512 512;" xml:space="preserve">
<path d="M256,8C119,8,8,119.1,8,256c0,137,111,248,248,248s248-111,248-248C504,119.1,393,8,256,8z M256,456
	c-110.5,0-200-89.4-200-200c0-110.5,89.5-200,200-200s200,89.5,200,200S366.6,456,256,456z"/>
<path d="M209.8,374.5h-53.5c-7.9,0-14.3-6.4-14.3-14.3V151.8c0-7.9,6.4-14.3,14.3-14.3h53.5c7.9,0,14.3,6.4,14.3,14.3v208.5
	C224,368.1,217.6,374.5,209.8,374.5z"/>
<path d="M347.8,371.5h-53.5c-7.9,0-14.3-6.4-14.3-14.3V148.8c0-7.9,6.4-14.3,14.3-14.3h53.5c7.9,0,14.3,6.4,14.3,14.3v208.5
	C362,365.1,355.6,371.5,347.8,371.5z"/>
</svg>
