<?xml version="1.0" encoding="utf-8"?>
<!-- Generator: Adobe Illustrator 22.1.0, SVG Export Plug-In . SVG Version: 6.00 Build 0)  -->
<svg version="1.1" id="Layer_1" xmlns="http://www.w3.org/2000/svg" xmlns:xlink="http://www.w3.org/1999/xlink" x="0px" y="0px"
	 viewBox="0 0 512 512" style="enable-background:new 0 0 512 512;" xml:space="preserve">
<path d="M427.9,439h44c12.6,0,25.1-10.3,25.1-20.6V46.7c0-10.3-12.6-20.7-25.1-20.7h-44c-12.6,0-25.1,10.3-25.1,20.7v371.7
	C402.8,428.7,415.4,439,427.9,439z M51.1,439h44c12.6,0,25.1-10.3,25.1-20.6V98.3c0-10.3-12.6-20.7-25.1-20.7h-44
	C38.6,77.6,26,87.9,26,98.3v320.1C26,428.7,38.6,439,51.1,439z M239.5,439h44c12.6,0,25.1-10.3,25.1-20.6V201.5
	c0-10.3-12.6-20.7-25.1-20.7h-44c-12.6,0-25.1,10.3-25.1,20.7v216.8C214.4,428.7,227,439,239.5,439z"/>
</svg>
