<?xml version="1.0" encoding="utf-8"?>
<!-- Generator: Adobe Illustrator 22.1.0, SVG Export Plug-In . SVG Version: 6.00 Build 0)  -->
<svg version="1.1" id="Layer_1" xmlns="http://www.w3.org/2000/svg" xmlns:xlink="http://www.w3.org/1999/xlink" x="0px" y="0px"
	 viewBox="0 0 640 512" style="enable-background:new 0 0 640 512;" xml:space="preserve">
<path d="M509.3,290c4-21.8,4-44.1,0-66l39.9-23.1c4.6-2.6,6.7-8.1,5.1-13.2C544,154.3,526.2,124,503,98.9c-3.6-3.9-9.3-4.8-13.9-2.2
	l-39.9,23.1c-16.9-14.4-36.2-25.5-57.1-33V40.7c0-5.3-3.7-9.9-8.8-11c-34.5-7.7-69.7-7.4-102.5,0c-5.1,1.1-8.8,5.7-8.8,11v46.1
	c-20.9,7.4-40.3,18.6-57.1,33l-39.9-23.1c-4.5-2.6-10.4-1.7-13.9,2.2c-23.2,25.1-41,55.4-51.4,88.9c-1.5,5.1,0.6,10.5,5.1,13.2
	l39.9,23.1c-4,21.8-4,44.1,0,66l-39.9,23.1c-4.6,2.6-6.7,8.1-5.1,13.2c10.4,33.4,28.2,63.6,51.4,88.9c3.6,3.9,9.3,4.8,13.9,2.2
	l39.9-23.1c16.9,14.4,36.2,25.5,57.1,33v46.1c0,5.3,3.7,9.9,8.8,11c34.5,7.7,69.7,7.4,102.5,0c5.1-1.1,8.8-5.7,8.8-11v-46.1
	c20.9-7.4,40.3-18.6,57.1-33l39.9,23.1c4.5,2.6,10.4,1.7,13.9-2.2c23.2-25.1,41-55.4,51.4-88.9c1.5-5.1-0.6-10.5-5.1-13.2L509.3,290
	z M332.1,332.1c-41.5,0-75.1-33.8-75.1-75.1s33.8-75.1,75.1-75.1s75.1,33.8,75.1,75.1S373.6,332.1,332.1,332.1z"/>
</svg>
