<?xml version="1.0" encoding="utf-8"?>
<!-- Generator: Adobe Illustrator 22.1.0, SVG Export Plug-In . SVG Version: 6.00 Build 0)  -->
<svg version="1.1" id="Layer_1" xmlns="http://www.w3.org/2000/svg" xmlns:xlink="http://www.w3.org/1999/xlink" x="0px" y="0px"
	 viewBox="0 0 684.5 289.4" style="enable-background:new 0 0 684.5 289.4;" xml:space="preserve">
<style type="text/css">
	.st0{fill:#FFF8FA;}
	.st1{fill:#FFD833;}
	.st2{fill:#F2D9B1;}
	.st3{fill:#FFEA83;}
	.st4{fill:none;stroke:#FFF80C;stroke-width:1.3004;stroke-miterlimit:10;}
	.st5{fill:#FFFFFF;}
	.st6{font-family:'RockwellStd';}
	.st7{font-size:45.2575px;}
</style>
<path class="st0" d="M85.9,124.6c0,0,0.1,0.1,0.2,0.2c0.1,0.1,0.2,0.1,0.3,0.2c0.1,0,0.1,0.1,0.2,0.2c0.1,0.1,0.1,0.1,0.2,0.2
	c0.3,0.3,0.6,0.6,1,1.1c0.1,0.1,0.2,0.2,0.3,0.3c0.1,0.1,0.2,0.2,0.3,0.4c0.1,0.1,0.2,0.3,0.3,0.4c0.1,0.1,0.2,0.3,0.3,0.4
	c0.2,0.3,0.5,0.6,0.7,1c0,0,0.1,0.1,0.1,0.1c0,0,0.1,0.1,0.1,0.1c0.1,0.1,0.1,0.2,0.2,0.3c0.1,0.1,0.1,0.2,0.2,0.3
	c0.1,0.1,0.1,0.2,0.2,0.3c0.5,0.8,0.9,1.8,1.2,2.9c0.3,1.1,0.6,2.3,0.8,3.5c0,0.2,0,0.3,0,0.5c0,0.2,0,0.3,0,0.5c0,0.2,0,0.3,0,0.5
	c0,0.2,0,0.3,0,0.5c0,0.2,0,0.3,0,0.5c0,0.2,0,0.3,0,0.5c0,0.4,0,0.7-0.1,1.1c0,0.2,0,0.4-0.1,0.5c0,0.2-0.1,0.4-0.1,0.6
	c0,0.1,0,0.2,0,0.3c0,0.1,0,0.2-0.1,0.3c0,0.2-0.1,0.4-0.1,0.6c-0.2,0.7-0.3,1.5-0.6,2.3c-0.5,1.5-1.1,3.1-1.9,4.7
	c-0.2,0.4-0.4,0.8-0.7,1.2c-0.2,0.4-0.5,0.8-0.7,1.2c-0.5,0.8-1,1.5-1.6,2.3c-0.6,0.8-1.2,1.5-1.9,2.2c-0.4,0.4-0.7,0.7-1.1,1
	c-0.4,0.3-0.8,0.6-1.3,0.9c-0.5,0.3-0.9,0.5-1.5,0.7c-0.5,0.2-1.1,0.3-1.6,0.3c-0.3,0-0.6,0-0.8-0.1c-0.1,0-0.3-0.1-0.4-0.1
	c0,0-0.1,0-0.1,0l-0.1,0l-0.2-0.1c-0.6-0.2-1.1-0.5-1.5-0.9c-0.4-0.4-0.8-0.9-1.1-1.4c-0.3-0.5-0.5-1-0.7-1.6
	c-0.4-1.1-0.6-2.2-0.7-3.4c-0.1-0.6-0.1-1.2-0.2-1.7c0-0.3-0.1-0.6-0.1-0.9c0-0.3-0.1-0.6-0.1-0.9c-0.1-1.2-0.1-2.4-0.1-3.6
	c0-1.2,0-2.4-0.1-3.6c-0.1-1.2-0.2-2.4-0.4-3.6l1.4,0c-0.7,3.2-1.8,6.4-3.3,9.5c-0.4,0.8-0.8,1.5-1.3,2.3c-0.5,0.8-1,1.5-1.5,2.2
	c-0.5,0.7-1.1,1.4-1.7,2.1c-0.6,0.7-1.3,1.3-2,1.9c-0.7,0.6-1.4,1.2-2.2,1.7c-0.8,0.5-1.6,1-2.4,1.5c-0.8,0.4-1.7,0.8-2.6,1.2
	c-0.9,0.3-1.9,0.6-2.9,0.7c-0.3,0-0.5,0.1-0.8,0.1c-0.1,0-0.3,0-0.4,0l-0.2,0l-0.2,0c-0.3,0-0.5,0-0.8,0l-0.4,0
	c-0.1,0-0.3,0-0.4-0.1c-0.5-0.1-1.1-0.3-1.6-0.5c-0.5-0.2-1-0.5-1.5-0.8c-0.9-0.7-1.7-1.6-2.3-2.5c-0.6-1-0.9-2-1.2-3
	c-0.2-1-0.4-2.1-0.4-3.2c0-0.5,0-1.1,0-1.6c0-0.5,0.1-1.1,0.2-1.6c0.3-2.1,1-4.1,1.9-6c0.1-0.2,0.2-0.5,0.4-0.7
	c0.1-0.2,0.2-0.4,0.3-0.7c0.2-0.4,0.5-0.9,0.7-1.3c0.2-0.4,0.5-0.9,0.7-1.3c0.2-0.4,0.4-0.9,0.7-1.3c0.9-1.8,1.7-3.6,2.5-5.4
	c0.7-1.8,1.4-3.7,1.9-5.6c0.1-0.2,0.1-0.5,0.2-0.7l0-0.1l0,0c0,0,0,0,0,0l0,0l0,0c0,0,0,0,0,0c0,0,0,0,0,0l0,0l0,0c0,0,0,0,0,0
	c0,0,0,0,0,0c0,0,0,0-0.1,0l-0.3-0.1c-0.1,0-0.1,0-0.2,0l-0.2,0l-0.3-0.1c-0.1,0-0.1,0-0.2,0l-0.2,0c-0.9-0.1-1.7,0-2.6,0.1
	c-0.9,0.1-1.8,0.4-2.7,0.7c-1.9,0.6-3.8,1.4-5.8,2.3c-0.7,0.3-1.3,0.5-2,0.8c-0.3,0.1-0.7,0.2-1,0.4c-0.2,0.1-0.4,0.1-0.5,0.2
	c-0.2,0.1-0.4,0.1-0.5,0.2l-0.6,0.1c-0.2,0-0.4,0.1-0.6,0.1l-0.3,0.1c-0.1,0-0.2,0-0.3,0.1l-0.6,0.1l-0.6,0.1c-0.1,0-0.2,0-0.3,0
	l-0.3,0l-0.3,0c-0.1,0-0.2,0-0.3,0l-0.6,0l-0.2,0c-0.1,0-0.1,0-0.2,0l-0.3,0l-0.3,0c-0.1,0-0.1,0-0.2,0l-0.2,0l-0.6-0.1
	c-0.1,0-0.2,0-0.3-0.1l-0.2,0l-0.2,0c-0.5-0.1-0.9-0.3-1.4-0.5c-0.5-0.2-1-0.5-1.4-0.9c-0.4-0.4-0.8-0.9-1.1-1.4
	c-0.3-0.5-0.5-1-0.6-1.5c-0.1-0.5-0.2-1-0.2-1.5c0-0.5,0-0.9,0-1.3c0.1-0.9,0.2-1.6,0.4-2.4c0.2-0.8,0.4-1.5,0.7-2.2
	c0.5-1.4,1.2-2.7,1.9-4c0.2-0.3,0.4-0.6,0.6-0.9l0.1-0.2l0.2-0.2l0.1-0.1l0.1-0.1l0.2-0.2c0.2-0.3,0.4-0.6,0.7-0.9
	c0.2-0.3,0.4-0.6,0.7-0.8c0.9-1.1,1.9-2.1,3-3.1c2.1-1.9,4.4-3.5,6.9-4.8c2.5-1.3,5.2-2.2,7.9-2.7c1.4-0.2,2.8-0.3,4.2-0.3
	c1.4,0,2.9,0.3,4.3,0.7c1.4,0.4,2.7,1,3.9,1.7l0.1,0.1l0.1,0l0,0l0,0c0,0,0,0,0,0l0,0c0,0,0,0,0.1,0c0,0,0.1,0.1,0.1,0.1l0,0
	c0,0,0,0,0,0l0,0l0,0l0-0.1c0-0.1,0.1-0.1,0.1-0.2l0-0.1l0,0l0,0l0-0.1c0.1-0.2,0.1-0.3,0.2-0.5c0.1-0.3,0.2-0.6,0.4-0.9
	c0.1-0.3,0.2-0.6,0.4-0.9c0.1-0.2,0.1-0.3,0.2-0.5c0.1-0.2,0.1-0.3,0.2-0.5c0.1-0.1,0.1-0.3,0.2-0.4l0-0.1l0-0.1l0.1-0.2
	c0.1-0.1,0.1-0.3,0.2-0.4c0.1-0.1,0.1-0.3,0.2-0.4c0.2-0.6,0.4-1.1,0.6-1.7c0.4-1.1,0.8-2.3,1.2-3.5c0.8-2.4,1.5-4.7,2.5-7.1
	c0.1-0.3,0.3-0.6,0.4-0.9c0.1-0.3,0.3-0.6,0.4-0.9c0.1-0.3,0.3-0.6,0.4-0.9c0.2-0.3,0.3-0.6,0.5-0.9c0.2-0.3,0.3-0.6,0.5-0.9
	c0.1-0.1,0.2-0.3,0.3-0.4c0.1-0.1,0.2-0.3,0.3-0.4c0.1-0.1,0.2-0.3,0.3-0.4c0.1-0.1,0.2-0.3,0.3-0.4c0.1-0.1,0.2-0.3,0.3-0.4
	c0.1-0.1,0.2-0.3,0.3-0.4c0.1-0.1,0.2-0.3,0.3-0.4c0.1-0.1,0.2-0.2,0.4-0.4c0.1-0.1,0.1-0.1,0.2-0.2l0.2-0.2l0.2-0.2
	c0.1-0.1,0.1-0.1,0.2-0.2c0.5-0.5,1.1-0.9,1.8-1.3c0.6-0.4,1.4-0.7,2.1-0.9c0.8-0.2,1.6-0.4,2.4-0.3c0.8,0,1.6,0.1,2.4,0.4
	c0.8,0.2,1.5,0.6,2.1,1c0.6,0.4,1.2,0.8,1.7,1.3c0.5,0.5,0.9,1,1.3,1.5c0.4,0.5,0.7,1,1.1,1.6c0.3,0.5,0.6,1.1,0.8,1.6
	c0.1,0.1,0.1,0.3,0.2,0.4l0.1,0.2l0.1,0.2c0.1,0.1,0.1,0.3,0.2,0.4c0,0.1,0.1,0.3,0.1,0.4l0.1,0.2l0.1,0.2c0,0.1,0.1,0.3,0.1,0.4
	c0.1,0.3,0.2,0.5,0.2,0.8c0.6,2.2,0.8,4.3,0.8,6.3c0,2-0.2,4-0.5,5.9c-0.2,0.9-0.4,1.8-0.6,2.7c-0.1,0.4-0.2,0.8-0.3,1.2
	c-0.1,0.4-0.2,0.8-0.4,1.2c-0.9,3.2-1.9,6.1-2.9,8.7c-0.2,0.7-0.5,1.3-0.7,1.9c-0.2,0.6-0.5,1.2-0.7,1.8c-0.3,0.6-0.5,1.2-0.7,1.7
	c-0.1,0.3-0.2,0.5-0.4,0.8c-0.1,0.1-0.1,0.3-0.2,0.4c-0.1,0.1-0.1,0.3-0.2,0.4c-0.1,0.3-0.2,0.5-0.4,0.7c0,0.1-0.1,0.1-0.1,0.2
	l0,0.1l0,0l0,0c0,0.1-0.1,0.1-0.1,0.2c-0.2,0.3-0.3,0.6-0.5,0.9c-0.2,0.3-0.3,0.6-0.5,0.9c-0.1,0.1-0.2,0.3-0.3,0.4
	c0,0.1-0.1,0.1-0.1,0.2c0,0,0,0.1-0.1,0.1c0,0,0,0,0,0.1l0,0c0.4,0.1,0.8,0.3,1.1,0.4c0.4,0.2,0.7,0.3,1,0.5
	c0.2,0.1,0.3,0.2,0.5,0.3c0.1,0.1,0.2,0.1,0.3,0.2c0.1,0.1,0.2,0.1,0.3,0.2c0.2,0.1,0.3,0.2,0.5,0.3c0.1,0.1,0.3,0.2,0.4,0.3
	c0.1,0.1,0.2,0.2,0.3,0.3c0.1,0.1,0.2,0.2,0.3,0.3c0.2,0.2,0.3,0.3,0.4,0.5C85.9,124.3,86,124.5,85.9,124.6c-0.1,0.1-0.3,0.1-0.6,0
	c-0.2,0-0.3-0.1-0.5-0.2c-0.2-0.1-0.5-0.2-0.7-0.3c-0.1-0.1-0.3-0.1-0.4-0.2c-0.2-0.1-0.3-0.1-0.5-0.2c-0.1,0-0.2-0.1-0.3-0.1
	c-0.1,0-0.2-0.1-0.3-0.1c-0.2-0.1-0.5-0.2-0.8-0.3c-0.6-0.2-1.2-0.3-2-0.5c-0.8-0.2-1.6-0.3-2.5-0.5l0,0c0,0,0-0.1,0-0.1
	c0-0.1,0-0.1,0.1-0.2c0-0.1,0.1-0.2,0.2-0.4c0.1-0.2,0.2-0.5,0.3-0.8c0.2-0.5,0.5-1.1,0.7-1.7c0.1-0.1,0.1-0.3,0.2-0.5
	c0.1-0.2,0.1-0.3,0.2-0.5c0.1-0.3,0.3-0.6,0.4-1c0.1-0.2,0.1-0.3,0.2-0.5l0-0.1l0,0l0-0.1c0-0.1,0-0.1,0.1-0.2
	c0.1-0.3,0.2-0.5,0.3-0.8c0-0.1,0.1-0.3,0.1-0.4c0-0.1,0.1-0.3,0.1-0.4c0.1-0.3,0.2-0.5,0.3-0.8c0.2-0.5,0.4-1.1,0.6-1.7
	c0.2-0.6,0.4-1.2,0.6-1.8c0.2-0.6,0.4-1.3,0.6-1.9c0.8-2.6,1.5-5.5,2.3-8.7c0.1-0.4,0.2-0.8,0.3-1.2c0.1-0.4,0.2-0.8,0.3-1.2
	c0.2-0.8,0.3-1.6,0.4-2.4c0.2-1.6,0.3-3.3,0.3-5c0-0.9-0.1-1.7-0.3-2.6c-0.1-0.9-0.3-1.7-0.6-2.5c-0.1-0.2-0.1-0.4-0.2-0.6
	c0-0.1-0.1-0.2-0.1-0.3L84.5,84l-0.1-0.2c0-0.1-0.1-0.2-0.1-0.3c0-0.1-0.1-0.2-0.1-0.3l-0.1-0.1L84,82.9c0-0.1-0.1-0.2-0.1-0.3
	c-0.2-0.4-0.4-0.8-0.6-1.1c-0.2-0.4-0.5-0.7-0.7-1c-0.5-0.6-1.1-1.1-1.6-1.5c-0.3-0.2-0.6-0.3-0.9-0.4c-0.3-0.1-0.6-0.1-0.8-0.1
	c-0.3,0-0.6,0.1-0.9,0.1c-0.3,0.1-0.6,0.2-0.9,0.4c-0.6,0.4-1.3,1-1.9,1.7c-0.3,0.4-0.6,0.7-0.9,1.1c-0.1,0.1-0.1,0.2-0.2,0.3
	c-0.1,0.1-0.1,0.2-0.2,0.3c-0.1,0.2-0.3,0.4-0.4,0.6c-0.1,0.2-0.2,0.4-0.4,0.7c-0.1,0.2-0.2,0.5-0.4,0.7c-0.1,0.2-0.2,0.5-0.3,0.7
	c-0.1,0.3-0.2,0.5-0.3,0.8c-0.9,2.1-1.6,4.3-2.4,6.7c-0.4,1.2-0.8,2.4-1.2,3.6c-0.2,0.6-0.4,1.2-0.7,1.9c-0.1,0.2-0.1,0.3-0.2,0.5
	c-0.1,0.2-0.1,0.3-0.2,0.5l-0.1,0.2l-0.1,0.1l0,0.1c-0.1,0.1-0.1,0.3-0.2,0.4c-0.1,0.3-0.2,0.5-0.3,0.8c-0.1,0.3-0.2,0.6-0.3,0.9
	c-0.1,0.3-0.2,0.6-0.3,0.9c-0.2,0.4-0.3,0.8-0.5,1.2c-0.4,1.2-0.9,2.3-1.3,3.5c-0.2,0.6-0.4,1.2-0.6,1.7c-0.1,0.3-0.2,0.6-0.3,0.9
	l-0.1,0.2c0,0,0,0.1,0,0.1l0,0.1l-0.2,0.4c-1-0.9-1.9-1.8-2.9-2.7l-0.4-0.3c-0.1-0.1-0.2-0.2-0.4-0.3l-0.4-0.3l-0.2-0.2
	c-0.1,0-0.1-0.1-0.2-0.1c-0.2-0.2-0.5-0.4-0.7-0.5c-0.1-0.1-0.2-0.2-0.4-0.2l-0.2-0.1c-0.9-0.5-1.8-0.9-2.7-1.2c-1-0.3-2-0.4-3-0.5
	c-1,0-2.1,0-3.2,0.2c-2.2,0.3-4.3,1-6.4,2.1c-2.1,1-4.1,2.4-5.9,3.9c-0.9,0.8-1.7,1.6-2.5,2.5c-0.2,0.2-0.4,0.5-0.6,0.7
	c-0.2,0.2-0.4,0.5-0.5,0.7l-0.1,0.2l-0.1,0.1l-0.1,0.1l-0.1,0.2l-0.1,0.2c-0.2,0.2-0.3,0.5-0.5,0.8c-0.6,1-1.2,2.1-1.6,3.3
	c-0.2,0.6-0.4,1.1-0.6,1.7c-0.2,0.5-0.3,1.1-0.3,1.6c-0.1,0.5,0,0.9,0,1.3c0,0.2,0.1,0.3,0.1,0.4c0,0.1,0.1,0.2,0.2,0.2
	c0.1,0.1,0.2,0.1,0.3,0.2c0.1,0.1,0.3,0.1,0.5,0.2l0.1,0l0.1,0c0.1,0,0.1,0,0.2,0l0.4,0.1l0.1,0c0,0,0.1,0,0.1,0l0.2,0l0.2,0
	c0,0,0.1,0,0.1,0l0.1,0l0.4,0c0.1,0,0.1,0,0.2,0l0.2,0l0.2,0c0.1,0,0.1,0,0.2,0l0.4,0l0.4-0.1c0.1,0,0.1,0,0.2,0l0.2,0
	c0.1,0,0.3-0.1,0.4-0.1l0.5-0.1c0.1,0,0.3-0.1,0.5-0.1c0.2,0,0.3-0.1,0.5-0.1c0.3-0.1,0.6-0.2,0.9-0.3c0.6-0.2,1.2-0.4,1.9-0.7
	c2-0.7,4-1.6,6.1-2.2c1.1-0.3,2.2-0.6,3.4-0.7c1.2-0.1,2.4-0.2,3.6,0l0.2,0c0.1,0,0.2,0,0.2,0l0.5,0.1l0.2,0c0.1,0,0.2,0,0.2,0.1
	l0.4,0.1l0.3,0.1c0.1,0,0.2,0.1,0.4,0.1c0.2,0.1,0.5,0.2,0.7,0.3c0.5,0.2,0.9,0.4,1.3,0.6l0.7,0.3c0,0,0,0,0,0l0,0l0,0.1l0,0.2
	l-0.1,0.4c-0.1,0.5-0.2,1-0.3,1.4l0,0.2c0,0.1,0,0.1,0,0.2l-0.1,0.4l-0.2,0.6c-0.1,0.3-0.1,0.5-0.2,0.8c-0.6,2.1-1.4,4-2.3,6
	c-0.8,1.9-1.8,3.8-2.7,5.6c-0.2,0.5-0.5,0.9-0.7,1.3c-0.2,0.4-0.5,0.9-0.7,1.3c-0.2,0.4-0.5,0.9-0.7,1.3c-0.1,0.2-0.2,0.4-0.4,0.7
	c-0.1,0.2-0.2,0.4-0.3,0.6c-0.9,1.6-1.5,3.4-1.8,5.1c-0.1,0.4-0.1,0.9-0.2,1.3c0,0.4-0.1,0.9-0.1,1.3c0,0.9,0.1,1.7,0.2,2.6
	c0.2,0.8,0.4,1.6,0.8,2.3c0.4,0.7,0.9,1.3,1.4,1.7c0.6,0.5,1.3,0.8,2,0.9c0.1,0,0.2,0,0.3,0.1l0.3,0c0.2,0,0.4,0,0.6,0l0.1,0l0.2,0
	c0.1,0,0.2,0,0.3,0c0.2,0,0.4,0,0.6,0c0.8-0.1,1.6-0.3,2.5-0.5c0.8-0.3,1.6-0.6,2.4-1c0.8-0.4,1.5-0.8,2.2-1.2
	c0.7-0.5,1.4-1,2.1-1.5c1.3-1.1,2.5-2.3,3.5-3.6c0.5-0.7,1-1.3,1.5-2c0.5-0.7,0.9-1.4,1.3-2.1c1.6-2.9,2.7-6,3.5-9l0.8-3.1l0.6,3.1
	c0.2,1.3,0.3,2.6,0.4,3.8c0,1.3,0,2.5,0,3.7c0,1.2-0.1,2.4,0,3.5c0,0.3,0,0.6,0,0.8c0,0.3,0,0.6,0.1,0.9c0,0.6,0.1,1.1,0.1,1.7
	c0.1,1.1,0.3,2.2,0.6,3.2c0.2,0.5,0.3,1,0.6,1.4c0.2,0.5,0.5,0.9,0.9,1.2c0.4,0.3,0.8,0.6,1.2,0.7l0.2,0.1l0.1,0c0,0,0.1,0,0.1,0
	c0.1,0,0.2,0.1,0.4,0.1c0.2,0.1,0.5,0.1,0.7,0.1c0.5,0,1-0.1,1.4-0.2c0.5-0.1,0.9-0.3,1.3-0.6c0.4-0.2,0.8-0.5,1.2-0.8
	c0.4-0.3,0.7-0.6,1.1-1c0.7-0.7,1.3-1.4,1.9-2.1c0.6-0.7,1.1-1.5,1.7-2.2c0.3-0.4,0.5-0.7,0.7-1.1c0.2-0.4,0.5-0.8,0.7-1.1
	c0.8-1.5,1.5-3,2-4.6c0.3-0.8,0.5-1.5,0.6-2.2c0-0.2,0.1-0.4,0.1-0.6c0-0.1,0-0.2,0.1-0.3c0-0.1,0-0.2,0-0.3c0-0.2,0.1-0.4,0.1-0.5
	c0-0.2,0-0.4,0.1-0.5c0.1-0.4,0.1-0.7,0.1-1.1c0-0.2,0-0.3,0-0.5c0-0.2,0-0.3,0-0.5c0-0.2,0-0.3,0-0.5c0-0.2,0-0.3,0-0.5
	c0-0.2,0-0.3,0-0.5c0-0.2,0-0.3,0-0.5c-0.1-1.3-0.4-2.5-0.7-3.5c-0.3-1.1-0.7-2-1.2-2.9c-0.1-0.1-0.1-0.2-0.2-0.3
	c-0.1-0.1-0.1-0.2-0.2-0.3c-0.1-0.1-0.1-0.2-0.2-0.3c0,0-0.1-0.1-0.1-0.1c0,0-0.1-0.1-0.1-0.1c-0.2-0.4-0.5-0.7-0.7-1
	c-0.1-0.2-0.2-0.3-0.3-0.5c-0.1-0.1-0.2-0.3-0.3-0.4c-0.1-0.1-0.2-0.3-0.3-0.4c-0.1-0.1-0.2-0.2-0.3-0.3c-0.4-0.4-0.7-0.8-1-1.1
	c-0.1-0.1-0.1-0.1-0.2-0.2c-0.1-0.1-0.1-0.1-0.2-0.2c-0.1-0.1-0.2-0.2-0.3-0.3C86,124.6,85.9,124.6,85.9,124.6z"/>
<g>
	<path class="st1" d="M59.1,157.8c-13.6,6.8-16.7-6.7-11.4-16.2c3.2-5.9,6.3-11.9,7.9-18.6c5.1,2.3,7.4,8.2,6.1,13.4
		c0,0.1,0,0.1,0,0.2c0-0.1,0.1-0.2,0.1-0.3c3.3-3.4,7.8-4.4,10-2.1c0.7,0.8,1.2,2,1.4,3.3l0,0C71.1,145.9,67,153.8,59.1,157.8z"/>
	<path class="st2" d="M64.8,131.1c0.6-5-2.3-11.1-6.4-15.4c1.2-2.7,2.5-6.4,3.8-9.9c0.9-2.6,1.9-5.1,2.6-7c2.5-5.4,4-13.5,7.4-18.3
		c8.4-12.1,19.1,0.9,15,17.6c-1.9,7.5-4.9,17.2-8.6,24.2C72.9,122.3,68.3,126.1,64.8,131.1z"/>
	<path class="st3" d="M88.5,151.3c5.2-8.3,6.3-19.2-2.6-26.7c-4.9-4.2-14.6-5.1-18.1-0.1c0.6-5,1.4-11.2-5.5-18.6
		c-4.9-4.6-10-4.6-13.4-4.2c-7,1-13.9,5.5-18.2,11.5c-2.3,3.4-6.8,12.5-0.3,13.6c7.9,1.4,15.4-6.8,23.7-4.4c0.5,0.2,1,0.3,1.5,0.6
		c5.1,2.3,7.4,8.2,6.1,13.4c0,0,0.1-0.1,0.1-0.1c3.3-3.4,7.8-4.4,10-2.1c0.7,0.8,1.2,2,1.4,3.3l0,0c0.8,3.8,0.2,8.9,0.5,11.7
		c0.3,3.2,0.5,9,4.6,9.7C82.4,160,86.6,154.2,88.5,151.3z"/>
	<g>
		<g>
			<path class="st4" d="M38.3,116"/>
		</g>
	</g>
	<g>
		<g>
			<path class="st4" d="M47.9,111.3"/>
		</g>
	</g>
	<g>
		<g>
			<path class="st4" d="M64,133"/>
		</g>
	</g>
</g>
<path class="st0" d="M650.3,124.6c0,0,0.1,0.1,0.2,0.2c0.1,0.1,0.2,0.1,0.3,0.2c0.1,0,0.1,0.1,0.2,0.2c0.1,0.1,0.1,0.1,0.2,0.2
	c0.3,0.3,0.6,0.6,1,1.1c0.1,0.1,0.2,0.2,0.3,0.3c0.1,0.1,0.2,0.2,0.3,0.4c0.1,0.1,0.2,0.3,0.3,0.4c0.1,0.1,0.2,0.3,0.3,0.4
	c0.2,0.3,0.5,0.6,0.7,1c0,0,0.1,0.1,0.1,0.1c0,0,0.1,0.1,0.1,0.1c0.1,0.1,0.1,0.2,0.2,0.3c0.1,0.1,0.1,0.2,0.2,0.3
	c0.1,0.1,0.1,0.2,0.2,0.3c0.5,0.8,0.9,1.8,1.2,2.9c0.3,1.1,0.6,2.3,0.8,3.5c0,0.2,0,0.3,0,0.5c0,0.2,0,0.3,0,0.5c0,0.2,0,0.3,0,0.5
	c0,0.2,0,0.3,0,0.5c0,0.2,0,0.3,0,0.5c0,0.2,0,0.3,0,0.5c0,0.4,0,0.7-0.1,1.1c0,0.2,0,0.4-0.1,0.5c0,0.2-0.1,0.4-0.1,0.6
	c0,0.1,0,0.2,0,0.3c0,0.1,0,0.2-0.1,0.3c0,0.2-0.1,0.4-0.1,0.6c-0.2,0.7-0.3,1.5-0.6,2.3c-0.5,1.5-1.1,3.1-1.9,4.7
	c-0.2,0.4-0.4,0.8-0.7,1.2c-0.2,0.4-0.5,0.8-0.7,1.2c-0.5,0.8-1,1.5-1.6,2.3c-0.6,0.8-1.2,1.5-1.9,2.2c-0.4,0.4-0.7,0.7-1.1,1
	c-0.4,0.3-0.8,0.6-1.3,0.9c-0.5,0.3-0.9,0.5-1.5,0.7c-0.5,0.2-1.1,0.3-1.6,0.3c-0.3,0-0.6,0-0.8-0.1c-0.1,0-0.3-0.1-0.4-0.1
	c0,0-0.1,0-0.1,0l-0.1,0l-0.2-0.1c-0.6-0.2-1.1-0.5-1.5-0.9c-0.4-0.4-0.8-0.9-1.1-1.4c-0.3-0.5-0.5-1-0.7-1.6
	c-0.4-1.1-0.6-2.2-0.7-3.4c-0.1-0.6-0.1-1.2-0.2-1.7c0-0.3-0.1-0.6-0.1-0.9c0-0.3-0.1-0.6-0.1-0.9c-0.1-1.2-0.1-2.4-0.1-3.6
	c0-1.2,0-2.4-0.1-3.6c-0.1-1.2-0.2-2.4-0.4-3.6l1.4,0c-0.7,3.2-1.8,6.4-3.3,9.5c-0.4,0.8-0.8,1.5-1.3,2.3c-0.5,0.8-1,1.5-1.5,2.2
	c-0.5,0.7-1.1,1.4-1.7,2.1c-0.6,0.7-1.3,1.3-2,1.9c-0.7,0.6-1.4,1.2-2.2,1.7c-0.8,0.5-1.6,1-2.4,1.5c-0.8,0.4-1.7,0.8-2.6,1.2
	c-0.9,0.3-1.9,0.6-2.9,0.7c-0.3,0-0.5,0.1-0.8,0.1c-0.1,0-0.3,0-0.4,0l-0.2,0l-0.2,0c-0.3,0-0.5,0-0.8,0l-0.4,0
	c-0.1,0-0.3,0-0.4-0.1c-0.5-0.1-1.1-0.3-1.6-0.5c-0.5-0.2-1-0.5-1.5-0.8c-0.9-0.7-1.7-1.6-2.3-2.5c-0.6-1-0.9-2-1.2-3
	c-0.2-1-0.4-2.1-0.4-3.2c0-0.5,0-1.1,0-1.6c0-0.5,0.1-1.1,0.2-1.6c0.3-2.1,1-4.1,1.9-6c0.1-0.2,0.2-0.5,0.4-0.7
	c0.1-0.2,0.2-0.4,0.3-0.7c0.2-0.4,0.5-0.9,0.7-1.3c0.2-0.4,0.5-0.9,0.7-1.3c0.2-0.4,0.4-0.9,0.7-1.3c0.9-1.8,1.7-3.6,2.5-5.4
	c0.7-1.8,1.4-3.7,1.9-5.6c0.1-0.2,0.1-0.5,0.2-0.7l0-0.1l0,0c0,0,0,0,0,0l0,0l0,0c0,0,0,0,0,0c0,0,0,0,0,0l0,0l0,0c0,0,0,0,0,0
	c0,0,0,0,0,0c0,0,0,0-0.1,0l-0.3-0.1c-0.1,0-0.1,0-0.2,0l-0.2,0l-0.3-0.1c-0.1,0-0.1,0-0.2,0l-0.2,0c-0.9-0.1-1.7,0-2.6,0.1
	c-0.9,0.1-1.8,0.4-2.7,0.7c-1.9,0.6-3.8,1.4-5.8,2.3c-0.7,0.3-1.3,0.5-2,0.8c-0.3,0.1-0.7,0.2-1,0.4c-0.2,0.1-0.4,0.1-0.5,0.2
	c-0.2,0.1-0.4,0.1-0.5,0.2l-0.6,0.1c-0.2,0-0.4,0.1-0.6,0.1l-0.3,0.1c-0.1,0-0.2,0-0.3,0.1l-0.6,0.1l-0.6,0.1c-0.1,0-0.2,0-0.3,0
	l-0.3,0l-0.3,0c-0.1,0-0.2,0-0.3,0l-0.6,0l-0.2,0c-0.1,0-0.1,0-0.2,0l-0.3,0l-0.3,0c-0.1,0-0.1,0-0.2,0l-0.2,0l-0.6-0.1
	c-0.1,0-0.2,0-0.3-0.1l-0.2,0l-0.2,0c-0.5-0.1-0.9-0.3-1.4-0.5c-0.5-0.2-1-0.5-1.4-0.9c-0.4-0.4-0.8-0.9-1.1-1.4
	c-0.3-0.5-0.5-1-0.6-1.5c-0.1-0.5-0.2-1-0.2-1.5c0-0.5,0-0.9,0-1.3c0.1-0.9,0.2-1.6,0.4-2.4c0.2-0.8,0.4-1.5,0.7-2.2
	c0.5-1.4,1.2-2.7,1.9-4c0.2-0.3,0.4-0.6,0.6-0.9l0.1-0.2l0.2-0.2l0.1-0.1l0.1-0.1l0.2-0.2c0.2-0.3,0.4-0.6,0.7-0.9
	c0.2-0.3,0.4-0.6,0.7-0.8c0.9-1.1,1.9-2.1,3-3.1c2.1-1.9,4.4-3.5,6.9-4.8c2.5-1.3,5.2-2.2,7.9-2.7c1.4-0.2,2.8-0.3,4.2-0.3
	c1.4,0,2.9,0.3,4.3,0.7c1.4,0.4,2.7,1,3.9,1.7l0.1,0.1l0.1,0l0,0l0,0c0,0,0,0,0,0l0,0c0,0,0,0,0.1,0c0,0,0.1,0.1,0.1,0.1l0,0
	c0,0,0,0,0,0l0,0l0,0l0-0.1c0-0.1,0.1-0.1,0.1-0.2l0-0.1l0,0l0,0l0-0.1c0.1-0.2,0.1-0.3,0.2-0.5c0.1-0.3,0.2-0.6,0.4-0.9
	c0.1-0.3,0.2-0.6,0.4-0.9c0.1-0.2,0.1-0.3,0.2-0.5c0.1-0.2,0.1-0.3,0.2-0.5c0.1-0.1,0.1-0.3,0.2-0.4l0-0.1l0-0.1l0.1-0.2
	c0.1-0.1,0.1-0.3,0.2-0.4c0.1-0.1,0.1-0.3,0.2-0.4c0.2-0.6,0.4-1.1,0.6-1.7c0.4-1.1,0.8-2.3,1.2-3.5c0.8-2.4,1.5-4.7,2.5-7.1
	c0.1-0.3,0.3-0.6,0.4-0.9c0.1-0.3,0.3-0.6,0.4-0.9c0.1-0.3,0.3-0.6,0.4-0.9c0.2-0.3,0.3-0.6,0.5-0.9c0.2-0.3,0.3-0.6,0.5-0.9
	c0.1-0.1,0.2-0.3,0.3-0.4c0.1-0.1,0.2-0.3,0.3-0.4c0.1-0.1,0.2-0.3,0.3-0.4c0.1-0.1,0.2-0.3,0.3-0.4c0.1-0.1,0.2-0.3,0.3-0.4
	c0.1-0.1,0.2-0.3,0.3-0.4c0.1-0.1,0.2-0.3,0.3-0.4c0.1-0.1,0.2-0.2,0.4-0.4c0.1-0.1,0.1-0.1,0.2-0.2l0.2-0.2l0.2-0.2
	c0.1-0.1,0.1-0.1,0.2-0.2c0.5-0.5,1.1-0.9,1.8-1.3c0.6-0.4,1.4-0.7,2.1-0.9c0.8-0.2,1.6-0.4,2.4-0.3c0.8,0,1.6,0.1,2.4,0.4
	c0.8,0.2,1.5,0.6,2.1,1c0.6,0.4,1.2,0.8,1.7,1.3c0.5,0.5,0.9,1,1.3,1.5c0.4,0.5,0.7,1,1.1,1.6c0.3,0.5,0.6,1.1,0.8,1.6
	c0.1,0.1,0.1,0.3,0.2,0.4l0.1,0.2l0.1,0.2c0.1,0.1,0.1,0.3,0.2,0.4c0,0.1,0.1,0.3,0.1,0.4l0.1,0.2l0.1,0.2c0,0.1,0.1,0.3,0.1,0.4
	c0.1,0.3,0.2,0.5,0.2,0.8c0.6,2.2,0.8,4.3,0.8,6.3c0,2-0.2,4-0.5,5.9c-0.2,0.9-0.4,1.8-0.6,2.7c-0.1,0.4-0.2,0.8-0.3,1.2
	c-0.1,0.4-0.2,0.8-0.4,1.2c-0.9,3.2-1.9,6.1-2.9,8.7c-0.2,0.7-0.5,1.3-0.7,1.9c-0.2,0.6-0.5,1.2-0.7,1.8c-0.3,0.6-0.5,1.2-0.7,1.7
	c-0.1,0.3-0.2,0.5-0.4,0.8c-0.1,0.1-0.1,0.3-0.2,0.4c-0.1,0.1-0.1,0.3-0.2,0.4c-0.1,0.3-0.2,0.5-0.4,0.7c0,0.1-0.1,0.1-0.1,0.2
	l0,0.1l0,0l0,0c0,0.1-0.1,0.1-0.1,0.2c-0.2,0.3-0.3,0.6-0.5,0.9c-0.2,0.3-0.3,0.6-0.5,0.9c-0.1,0.1-0.2,0.3-0.3,0.4
	c0,0.1-0.1,0.1-0.1,0.2c0,0,0,0.1-0.1,0.1c0,0,0,0,0,0.1l0,0c0.4,0.1,0.8,0.3,1.1,0.4c0.4,0.2,0.7,0.3,1,0.5
	c0.2,0.1,0.3,0.2,0.5,0.3c0.1,0.1,0.2,0.1,0.3,0.2c0.1,0.1,0.2,0.1,0.3,0.2c0.2,0.1,0.3,0.2,0.5,0.3c0.1,0.1,0.3,0.2,0.4,0.3
	c0.1,0.1,0.2,0.2,0.3,0.3c0.1,0.1,0.2,0.2,0.3,0.3c0.2,0.2,0.3,0.3,0.4,0.5C650.3,124.3,650.4,124.5,650.3,124.6
	c-0.1,0.1-0.3,0.1-0.6,0c-0.2,0-0.3-0.1-0.5-0.2c-0.2-0.1-0.5-0.2-0.7-0.3c-0.1-0.1-0.3-0.1-0.4-0.2c-0.2-0.1-0.3-0.1-0.5-0.2
	c-0.1,0-0.2-0.1-0.3-0.1c-0.1,0-0.2-0.1-0.3-0.1c-0.2-0.1-0.5-0.2-0.8-0.3c-0.6-0.2-1.2-0.3-2-0.5c-0.8-0.2-1.6-0.3-2.5-0.5l0,0
	c0,0,0-0.1,0-0.1c0-0.1,0-0.1,0.1-0.2c0-0.1,0.1-0.2,0.2-0.4c0.1-0.2,0.2-0.5,0.3-0.8c0.2-0.5,0.5-1.1,0.7-1.7
	c0.1-0.1,0.1-0.3,0.2-0.5c0.1-0.2,0.1-0.3,0.2-0.5c0.1-0.3,0.3-0.6,0.4-1c0.1-0.2,0.1-0.3,0.2-0.5l0-0.1l0,0l0-0.1
	c0-0.1,0-0.1,0.1-0.2c0.1-0.3,0.2-0.5,0.3-0.8c0-0.1,0.1-0.3,0.1-0.4c0-0.1,0.1-0.3,0.1-0.4c0.1-0.3,0.2-0.5,0.3-0.8
	c0.2-0.5,0.4-1.1,0.6-1.7c0.2-0.6,0.4-1.2,0.6-1.8c0.2-0.6,0.4-1.3,0.6-1.9c0.8-2.6,1.5-5.5,2.3-8.7c0.1-0.4,0.2-0.8,0.3-1.2
	c0.1-0.4,0.2-0.8,0.3-1.2c0.2-0.8,0.3-1.6,0.4-2.4c0.2-1.6,0.3-3.3,0.3-5c0-0.9-0.1-1.7-0.3-2.6c-0.1-0.9-0.3-1.7-0.6-2.5
	c-0.1-0.2-0.1-0.4-0.2-0.6c0-0.1-0.1-0.2-0.1-0.3l-0.1-0.2l-0.1-0.2c0-0.1-0.1-0.2-0.1-0.3c0-0.1-0.1-0.2-0.1-0.3l-0.1-0.1l-0.1-0.1
	c0-0.1-0.1-0.2-0.1-0.3c-0.2-0.4-0.4-0.8-0.6-1.1c-0.2-0.4-0.5-0.7-0.7-1c-0.5-0.6-1.1-1.1-1.6-1.5c-0.3-0.2-0.6-0.3-0.9-0.4
	c-0.3-0.1-0.6-0.1-0.8-0.1c-0.3,0-0.6,0.1-0.9,0.1c-0.3,0.1-0.6,0.2-0.9,0.4c-0.6,0.4-1.3,1-1.9,1.7c-0.3,0.4-0.6,0.7-0.9,1.1
	c-0.1,0.1-0.1,0.2-0.2,0.3c-0.1,0.1-0.1,0.2-0.2,0.3c-0.1,0.2-0.3,0.4-0.4,0.6c-0.1,0.2-0.2,0.4-0.4,0.7c-0.1,0.2-0.2,0.5-0.4,0.7
	c-0.1,0.2-0.2,0.5-0.3,0.7c-0.1,0.3-0.2,0.5-0.3,0.8c-0.9,2.1-1.6,4.3-2.4,6.7c-0.4,1.2-0.8,2.4-1.2,3.6c-0.2,0.6-0.4,1.2-0.7,1.9
	c-0.1,0.2-0.1,0.3-0.2,0.5c-0.1,0.2-0.1,0.3-0.2,0.5l-0.1,0.2l-0.1,0.1l0,0.1c-0.1,0.1-0.1,0.3-0.2,0.4c-0.1,0.3-0.2,0.5-0.3,0.8
	c-0.1,0.3-0.2,0.6-0.3,0.9c-0.1,0.3-0.2,0.6-0.3,0.9c-0.2,0.4-0.3,0.8-0.5,1.2c-0.4,1.2-0.9,2.3-1.3,3.5c-0.2,0.6-0.4,1.2-0.6,1.7
	c-0.1,0.3-0.2,0.6-0.3,0.9l-0.1,0.2c0,0,0,0.1,0,0.1l0,0.1l-0.2,0.4c-1-0.9-1.9-1.8-2.9-2.7l-0.4-0.3c-0.1-0.1-0.2-0.2-0.4-0.3
	l-0.4-0.3l-0.2-0.2c-0.1,0-0.1-0.1-0.2-0.1c-0.2-0.2-0.5-0.4-0.7-0.5c-0.1-0.1-0.2-0.2-0.4-0.2l-0.2-0.1c-0.9-0.5-1.8-0.9-2.7-1.2
	c-1-0.3-2-0.4-3-0.5c-1,0-2.1,0-3.2,0.2c-2.2,0.3-4.3,1-6.4,2.1c-2.1,1-4.1,2.4-5.9,3.9c-0.9,0.8-1.7,1.6-2.5,2.5
	c-0.2,0.2-0.4,0.5-0.6,0.7c-0.2,0.2-0.4,0.5-0.5,0.7l-0.1,0.2l-0.1,0.1l-0.1,0.1l-0.1,0.2l-0.1,0.2c-0.2,0.2-0.3,0.5-0.5,0.8
	c-0.6,1-1.2,2.1-1.6,3.3c-0.2,0.6-0.4,1.1-0.6,1.7c-0.2,0.5-0.3,1.1-0.3,1.6c-0.1,0.5,0,0.9,0,1.3c0,0.2,0.1,0.3,0.1,0.4
	c0,0.1,0.1,0.2,0.2,0.2c0.1,0.1,0.2,0.1,0.3,0.2c0.1,0.1,0.3,0.1,0.5,0.2l0.1,0l0.1,0c0.1,0,0.1,0,0.2,0l0.4,0.1l0.1,0
	c0,0,0.1,0,0.1,0l0.2,0l0.2,0c0,0,0.1,0,0.1,0l0.1,0l0.4,0c0.1,0,0.1,0,0.2,0l0.2,0l0.2,0c0.1,0,0.1,0,0.2,0l0.4,0l0.4-0.1
	c0.1,0,0.1,0,0.2,0l0.2,0c0.1,0,0.3-0.1,0.4-0.1l0.5-0.1c0.1,0,0.3-0.1,0.5-0.1c0.2,0,0.3-0.1,0.5-0.1c0.3-0.1,0.6-0.2,0.9-0.3
	c0.6-0.2,1.2-0.4,1.9-0.7c2-0.7,4-1.6,6.1-2.2c1.1-0.3,2.2-0.6,3.4-0.7c1.2-0.1,2.4-0.2,3.6,0l0.2,0c0.1,0,0.2,0,0.2,0l0.5,0.1
	l0.2,0c0.1,0,0.2,0,0.2,0.1l0.4,0.1l0.3,0.1c0.1,0,0.2,0.1,0.4,0.1c0.2,0.1,0.5,0.2,0.7,0.3c0.5,0.2,0.9,0.4,1.3,0.6l0.7,0.3
	c0,0,0,0,0,0l0,0l0,0.1l0,0.2l-0.1,0.4c-0.1,0.5-0.2,1-0.3,1.4l0,0.2c0,0.1,0,0.1,0,0.2l-0.1,0.4l-0.2,0.6c-0.1,0.3-0.1,0.5-0.2,0.8
	c-0.6,2.1-1.4,4-2.3,6c-0.8,1.9-1.8,3.8-2.7,5.6c-0.2,0.5-0.5,0.9-0.7,1.3c-0.2,0.4-0.5,0.9-0.7,1.3c-0.2,0.4-0.5,0.9-0.7,1.3
	c-0.1,0.2-0.2,0.4-0.4,0.7c-0.1,0.2-0.2,0.4-0.3,0.6c-0.9,1.6-1.5,3.4-1.8,5.1c-0.1,0.4-0.1,0.9-0.2,1.3c0,0.4-0.1,0.9-0.1,1.3
	c0,0.9,0.1,1.7,0.2,2.6c0.2,0.8,0.4,1.6,0.8,2.3c0.4,0.7,0.9,1.3,1.4,1.7c0.6,0.5,1.3,0.8,2,0.9c0.1,0,0.2,0,0.3,0.1l0.3,0
	c0.2,0,0.4,0,0.6,0l0.1,0l0.2,0c0.1,0,0.2,0,0.3,0c0.2,0,0.4,0,0.6,0c0.8-0.1,1.6-0.3,2.5-0.5c0.8-0.3,1.6-0.6,2.4-1
	c0.8-0.4,1.5-0.8,2.2-1.2c0.7-0.5,1.4-1,2.1-1.5c1.3-1.1,2.5-2.3,3.5-3.6c0.5-0.7,1-1.3,1.5-2c0.5-0.7,0.9-1.4,1.3-2.1
	c1.6-2.9,2.7-6,3.5-9l0.8-3.1l0.6,3.1c0.2,1.3,0.3,2.6,0.4,3.8c0,1.3,0,2.5,0,3.7c0,1.2-0.1,2.4,0,3.5c0,0.3,0,0.6,0,0.8
	c0,0.3,0,0.6,0.1,0.9c0,0.6,0.1,1.1,0.1,1.7c0.1,1.1,0.3,2.2,0.6,3.2c0.2,0.5,0.3,1,0.6,1.4c0.2,0.5,0.5,0.9,0.9,1.2
	c0.4,0.3,0.8,0.6,1.2,0.7l0.2,0.1l0.1,0c0,0,0.1,0,0.1,0c0.1,0,0.2,0.1,0.4,0.1c0.2,0.1,0.5,0.1,0.7,0.1c0.5,0,1-0.1,1.4-0.2
	c0.5-0.1,0.9-0.3,1.3-0.6c0.4-0.2,0.8-0.5,1.2-0.8c0.4-0.3,0.7-0.6,1.1-1c0.7-0.7,1.3-1.4,1.9-2.1c0.6-0.7,1.1-1.5,1.7-2.2
	c0.3-0.4,0.5-0.7,0.7-1.1c0.2-0.4,0.5-0.8,0.7-1.1c0.8-1.5,1.5-3,2-4.6c0.3-0.8,0.5-1.5,0.6-2.2c0-0.2,0.1-0.4,0.1-0.6
	c0-0.1,0-0.2,0.1-0.3c0-0.1,0-0.2,0-0.3c0-0.2,0.1-0.4,0.1-0.5c0-0.2,0-0.4,0.1-0.5c0.1-0.4,0.1-0.7,0.1-1.1c0-0.2,0-0.3,0-0.5
	c0-0.2,0-0.3,0-0.5c0-0.2,0-0.3,0-0.5c0-0.2,0-0.3,0-0.5c0-0.2,0-0.3,0-0.5c0-0.2,0-0.3,0-0.5c-0.1-1.3-0.4-2.5-0.7-3.5
	c-0.3-1.1-0.7-2-1.2-2.9c-0.1-0.1-0.1-0.2-0.2-0.3c-0.1-0.1-0.1-0.2-0.2-0.3c-0.1-0.1-0.1-0.2-0.2-0.3c0,0-0.1-0.1-0.1-0.1
	c0,0-0.1-0.1-0.1-0.1c-0.2-0.4-0.5-0.7-0.7-1c-0.1-0.2-0.2-0.3-0.3-0.5c-0.1-0.1-0.2-0.3-0.3-0.4c-0.1-0.1-0.2-0.3-0.3-0.4
	c-0.1-0.1-0.2-0.2-0.3-0.3c-0.4-0.4-0.7-0.8-1-1.1c-0.1-0.1-0.1-0.1-0.2-0.2c-0.1-0.1-0.1-0.1-0.2-0.2c-0.1-0.1-0.2-0.2-0.3-0.3
	C650.4,124.6,650.3,124.6,650.3,124.6z"/>
<g>
	<path class="st1" d="M623.5,157.8c-13.6,6.8-16.7-6.7-11.4-16.2c3.2-5.9,6.3-11.9,7.9-18.6c5.1,2.3,7.4,8.2,6.1,13.4
		c0,0.1,0,0.1,0,0.2c0-0.1,0.1-0.2,0.1-0.3c3.3-3.4,7.8-4.4,10-2.1c0.7,0.8,1.2,2,1.4,3.3l0,0C635.5,145.9,631.4,153.8,623.5,157.8z
		"/>
	<path class="st2" d="M629.2,131.1c0.6-5-2.3-11.1-6.4-15.4c1.2-2.7,2.5-6.4,3.8-9.9c0.9-2.6,1.9-5.1,2.6-7c2.5-5.4,4-13.5,7.4-18.3
		c8.4-12.1,19.1,0.9,15,17.6c-1.9,7.5-4.9,17.2-8.6,24.2C637.3,122.3,632.7,126.1,629.2,131.1z"/>
	<path class="st3" d="M652.9,151.3c5.2-8.3,6.3-19.2-2.6-26.7c-4.9-4.2-14.6-5.1-18.1-0.1c0.6-5,1.4-11.2-5.5-18.6
		c-4.9-4.6-10-4.6-13.4-4.2c-7,1-13.9,5.5-18.2,11.5c-2.3,3.4-6.8,12.5-0.3,13.6c7.9,1.4,15.4-6.8,23.7-4.4c0.5,0.2,1,0.3,1.5,0.6
		c5.1,2.3,7.4,8.2,6.1,13.4c0,0,0.1-0.1,0.1-0.1c3.3-3.4,7.8-4.4,10-2.1c0.7,0.8,1.2,2,1.4,3.3l0,0c0.8,3.8,0.2,8.9,0.5,11.7
		c0.3,3.2,0.5,9,4.6,9.7C646.8,160,651,154.2,652.9,151.3z"/>
	<g>
		<g>
			<path class="st4" d="M602.7,116"/>
		</g>
	</g>
	<g>
		<g>
			<path class="st4" d="M612.3,111.3"/>
		</g>
	</g>
	<g>
		<g>
			<path class="st4" d="M628.4,133"/>
		</g>
	</g>
</g>
<path class="st5" d="M345.3,16.7C289.9,16.7,245,61.6,245,117c0,55.4,44.9,100.3,100.3,100.3c55.4,0,100.3-44.9,100.3-100.3
	C445.5,61.6,400.6,16.7,345.3,16.7z M407.2,133.9c0,0.4,0,0.7,0,1.1c0,4.5-1.7,8.7-4.4,11.9c-5.2,12.5-27.1,23.1-58.2,23.1
	c-31.2,0-52.1-10.7-57.1-23.2c-2.7-3.2-4.3-7.3-4.3-11.8c0-0.4,0-0.7,0-1.1c-12.7-3.2-22-14.6-22-28.3c0-16.1,13.1-29.2,29.2-29.2
	c6.6,0,12.6,2.2,17.5,5.8c2.4-3.1,5.3-6,8.6-8.5c8.2-6.3,17.9-9.5,27.6-9.8c0.8-1.5,1.8-3,3.1-4.3c1.8-1.8,4.1-2.8,6.5-3.1
	c-0.5,0.4-1,0.8-1.4,1.2c-1.8,1.8-3.1,4-3.9,6.2c0.4,0,0.7,0,1.1,0.1c1.9-1.4,4-2.4,6.4-2.9c2.7-0.6,5.4-0.1,7.7,1.3
	c-2.3,0.6-4.4,1.6-6.2,2.9c9.8,2.5,18.8,8.2,25.5,16.8c4.9-3.7,10.9-5.8,17.5-5.8c16.1,0,29.2,13.1,29.2,29.2
	C429.3,119.3,419.9,130.7,407.2,133.9z"/>
<g>
	<path class="st5" d="M141.4,94.3c-1.8-7.1-5.6-10.8-11.5-11.1l0,0c-4.7,0-7.9,4-9.5,11.8c-0.9,4.2-1.4,6.9-1.5,8.2
		c-0.7,6.8-1,13.8-1.1,20.7c-0.1,13.4-0.2,16.7-0.2,17.1l0,0c0,0.4,0,0.8,0,1.2c0,0.9,0.1,1.8,0.3,2.8c0.3,1.8,1.5,2.9,3.4,2.9l0,0
		c2.1,0,2.9-1,3.2-1.8c0.3-0.8,0.4-1.7,0.4-2.7l0-8.2c0-9.3,0.3-17.1,0.7-23.1c0.2-2,0.3-3.4,0.3-4.2c0-0.7,0.1-1,0.2-1.2
		c0.1,0,0.3-0.1,0.7-0.1l8.8,0c0.3,0,0.4,0,0.5,0.5c0.1,0.8,0.1,1.4,0.2,2.1c0.3,4.9,0.5,9.9,0.5,14.8c0,6.2-0.1,11.5-0.3,15.8
		c-0.1,1.8-0.1,3.6-0.1,5.4c0,4,2.6,4.4,3.8,4.4c2,0,2.7-1.1,3-1.7c0.3-0.6,0.9-1.9,0.9-22.8C143.9,111.3,143,100.9,141.4,94.3z
		 M135.1,99.8c-0.1,0-0.2,0-0.3,0h-4.3c-1.8,0-3,0-3.5,0c-0.1,0-0.1,0-0.2,0c0-0.2,0.1-0.5,0.1-1.1c1.1-6.5,2.6-8.2,3.4-8.7
		c0.1,0,0.1,0,0.2,0c0.7,0,2.6,0.8,4.3,8.4C135,99.1,135,99.6,135.1,99.8z"/>
	<path class="st5" d="M177.7,91.6c-1.3-3.8-4.4-6.4-9.4-7.6c-1.6-0.4-3.3-0.7-5.4-1c-0.8-0.1-1.4-0.1-1.9-0.1
		c-2.3,0-3.2,1.1-3.6,1.9c-0.3,0.6-0.7,1.5-1.1,61.1c0,1.1,0.3,2,1,2.7c0.7,0.7,1.6,1.1,2.7,1.1h0l0,0c1.4-0.1,2.2-0.7,2.6-1.2
		c0.5-0.6,1.3-1.6,1.3-39.6c0-1.3,0-1.9,0.1-2.2c0.3-0.1,0.9-0.3,2.3-0.5c3.3-0.5,6.1-1.7,8.3-3.6c2.3-2,3.4-4.6,3.4-7.8
		C178.1,93.4,178,92.4,177.7,91.6z M171.1,94.9c0,0.6,0,2.4-3.6,3.7c-0.7,0.2-1.7,0.5-3.1,0.8l0,0c-0.1,0-0.2,0-0.3,0.1
		c0-0.2,0-0.3,0-0.6c0-2.5,0-4.7,0.1-6.3c0-0.6,0-1.2,0-1.9c0-0.1,0-0.2,0-0.3c0.1,0,0.3,0,0.5,0.1c1.7,0.3,3.2,0.8,4.7,1.6
		C170.5,92.5,171.1,93.5,171.1,94.9z"/>
	<path class="st5" d="M203.2,136.1L203.2,136.1l-0.2-0.1c-0.5-0.1-0.9-0.2-1.4-0.2c-1,0-2.4,0.4-3.3,2.2l0,0.1
		c-1.4,3.6-2.7,4.4-3.3,4.5c-1.1-0.1-2.5-1.2-3.6-6.3c-1.1-5.3-1.7-11.6-1.7-18.6c0-2.1,0-4.3,0.1-6.6c0.1-2.2,0.2-3.5,0.2-4.1
		c0-0.2,0-0.3,0-0.4c0.1,0,0.3,0,0.6,0c4.7,0,8,0,9.8,0.1l0.1,0c1.1,0,2-0.2,2.8-0.6c0.9-0.5,1.6-1.7,2-3.8c0.3-1.7,0.5-3.7,0.5-5.7
		c0-0.5,0-1.5-0.1-3.2c-0.1-1.7-0.7-3.8-1.9-6c-1.3-2.4-3.4-3.9-6.3-4.7l-0.1,0c-0.8-0.1-1.5-0.2-2.2-0.2c-2.4,0-4.6,0.9-6.4,2.7
		c-1.7,1.7-3.1,4.2-4,7.3c-0.9,3-1.4,6.1-1.7,9.3c-0.3,3.1-0.4,5.7-0.4,7.7c0,0.3,0,0.6,0,0.9l0,0.1c-0.1,2.2-0.1,4.5-0.1,6.8
		c0,1.7,0,4,0.1,6.9c0,2.9,0.4,6.3,1,10.2c1.6,10.1,5.5,15.1,11.6,15.1c2.3,0,4.3-0.9,6-2.6c1.6-1.6,2.9-3.7,3.8-6.1
		c0.3-0.6,0.4-1.2,0.4-1.7C205.4,138.3,205,137,203.2,136.1z M190.7,99.8c0-0.2,0.1-0.8,0.4-2.4c0.2-1.4,0.7-2.9,1.4-4.5
		c0.6-1.4,1.5-2.3,2.8-2.8c0.3-0.1,0.5-0.1,0.6-0.1c2.1,0,2.4,4.8,2.4,7.6l0,2c0,0,0,0.1,0,0.1c-0.1,0-0.3,0.1-0.6,0.1h-6.6
		L190.7,99.8z"/>
	<path class="st5" d="M234.5,91.4c-0.8-2.7-2.1-4.8-3.8-6.3c-1.8-1.5-3.8-2.3-6.1-2.3c-0.6,0-1.3,0.1-2,0.2
		c-3.3,0.7-5.6,2.2-7.1,4.5c-1.4,2.2-2.2,4.3-2.3,6.2c-0.1,1.8-0.2,3.2-0.2,4.1c0,7.8,2.5,16.3,7.4,25.3c1.2,2.3,2.4,4.6,3.4,6.9
		c1.4,3.2,2.2,6,2.2,8.3v1.8c0,0.8-0.4,1.5-1.1,2c-0.6,0.4-1.1,0.6-1.7,0.6c-0.6,0-1.2-0.3-1.9-0.8l0,0c-0.3-0.3-0.5-0.4-0.5-0.5
		c-0.1-0.2-0.2-0.4-0.3-0.6c-0.1-0.4-0.4-0.8-0.7-1.2c-0.7-1-1.7-1.5-2.9-1.5c-1.5,0-2.4,0.6-2.8,1.2c-0.6,0.7-0.9,1.5-0.9,2.2
		c0,0.5,0.1,1,0.3,1.6c1.6,4.3,4.7,6.5,9.1,6.5h0l1.1-0.1c6.2-0.6,9.5-3.9,9.5-9.8c0-4.4-1.4-9.4-4.1-14.9l-4.4-8.9
		c-3-6.1-4.6-12-4.6-17.4l0-2.4c0-1.4,0.3-2.7,1-4c0.7-1.3,1.7-1.9,3.2-1.9c0.5,0,2,0,3.1,3.4c0.8,2.5,2.5,2.9,3.4,2.9
		c2.3,0,3.1-1,3.4-1.8l0,0c0.2-0.6,0.3-1.2,0.3-1.7C234.8,92.5,234.7,92,234.5,91.4z"/>
	<path class="st5" d="M480.7,94.3c-1.8-7.1-5.6-10.8-11.5-11.1l0,0c-4.7,0-7.9,4-9.5,11.8c-0.9,4.2-1.4,6.9-1.5,8.2
		c-0.7,6.8-1,13.8-1.1,20.7c-0.1,13.4-0.2,16.7-0.2,17.1l0,0c0,0.4,0,0.8,0,1.2c0,0.9,0.1,1.8,0.3,2.8c0.3,1.8,1.6,2.9,3.4,2.9l0,0
		c2.1,0,2.9-1,3.2-1.8c0.3-0.8,0.4-1.7,0.4-2.7l0-8.2c0-9.3,0.3-17.1,0.7-23.1c0.2-2,0.3-3.4,0.3-4.2c0-0.7,0.1-1,0.2-1.2
		c0.1,0,0.3-0.1,0.7-0.1l8.8,0c0.3,0,0.4,0,0.5,0.5c0.1,0.8,0.1,1.4,0.2,2.1c0.3,4.9,0.5,9.9,0.5,14.8c0,6.2-0.1,11.5-0.3,15.8
		c-0.1,1.8-0.1,3.6-0.1,5.4c0,4,2.6,4.4,3.8,4.4c2,0,2.7-1.1,3-1.7c0.3-0.6,0.9-1.9,0.9-22.8C483.2,111.3,482.3,100.9,480.7,94.3z
		 M474.4,99.8c-0.1,0-0.2,0-0.3,0h-4.3c-1.8,0-3,0-3.5,0c-0.1,0-0.1,0-0.2,0c0-0.2,0.1-0.5,0.1-1.1c1.1-6.5,2.6-8.2,3.4-8.7
		c0.1,0,0.1,0,0.2,0c0.7,0,2.6,0.8,4.3,8.4C474.3,99.1,474.3,99.6,474.4,99.8z"/>
	<path class="st5" d="M517,91.6c-1.3-3.8-4.4-6.4-9.4-7.6c-1.6-0.4-3.3-0.7-5.4-1c-0.8-0.1-1.4-0.1-1.9-0.1c-2.3,0-3.2,1.1-3.6,1.9
		c-0.3,0.6-0.7,1.5-1.1,61.1c0,1.1,0.3,2,1,2.7c0.7,0.7,1.6,1.1,2.7,1.1h0l0,0c1.4-0.1,2.2-0.7,2.6-1.2c0.5-0.6,1.3-1.6,1.3-39.6
		c0-1.3,0-1.9,0.1-2.2c0.3-0.1,0.9-0.3,2.3-0.5c3.3-0.5,6.1-1.7,8.3-3.6c2.3-2,3.4-4.6,3.4-7.8C517.4,93.4,517.3,92.4,517,91.6z
		 M510.3,94.9c0,0.6,0,2.4-3.6,3.7c-0.7,0.2-1.7,0.5-3.1,0.8l0,0c-0.1,0-0.2,0-0.3,0.1c0-0.2,0-0.3,0-0.6c0-2.5,0-4.7,0.1-6.3
		c0-0.6,0-1.2,0-1.9c0-0.1,0-0.2,0-0.3c0.1,0,0.3,0,0.5,0.1c1.7,0.3,3.2,0.8,4.7,1.6C509.8,92.5,510.3,93.5,510.3,94.9z"/>
	<path class="st5" d="M542.5,136.1L542.5,136.1l-0.2-0.1c-0.5-0.1-0.9-0.2-1.4-0.2c-1,0-2.4,0.4-3.3,2.2l0,0.1
		c-1.4,3.6-2.7,4.4-3.3,4.5c-1.1-0.1-2.5-1.2-3.6-6.3c-1.1-5.3-1.7-11.6-1.7-18.6c0-2.1,0-4.3,0.1-6.6c0.1-2.2,0.2-3.5,0.2-4.1
		c0-0.2,0-0.3,0-0.4c0.1,0,0.3,0,0.6,0c4.7,0,8,0,9.8,0.1l0.1,0c1.1,0,2-0.2,2.8-0.6c0.9-0.5,1.6-1.7,2-3.8c0.3-1.7,0.5-3.7,0.5-5.7
		c0-0.5,0-1.5-0.1-3.2c-0.1-1.7-0.7-3.8-1.9-6c-1.3-2.4-3.4-3.9-6.3-4.7l-0.1,0c-0.8-0.1-1.5-0.2-2.2-0.2c-2.4,0-4.6,0.9-6.4,2.7
		c-1.7,1.7-3.1,4.2-4,7.3c-0.9,3-1.4,6.1-1.7,9.3c-0.3,3.1-0.4,5.7-0.4,7.7c0,0.3,0,0.6,0,0.9l0,0.1c-0.1,2.2-0.1,4.5-0.1,6.8
		c0,1.7,0,4,0.1,6.9c0,2.9,0.4,6.3,1,10.2c1.6,10.1,5.5,15.1,11.6,15.1c2.3,0,4.3-0.9,6-2.6c1.6-1.6,2.9-3.7,3.8-6.1
		c0.3-0.6,0.4-1.2,0.4-1.7C544.7,138.3,544.3,137,542.5,136.1z M530,99.8c0-0.2,0.1-0.8,0.4-2.4c0.2-1.4,0.7-2.9,1.4-4.5
		c0.6-1.4,1.5-2.3,2.8-2.8c0.3-0.1,0.5-0.1,0.6-0.1c2.1,0,2.4,4.8,2.4,7.6l0,2c0,0,0,0.1,0,0.1c-0.1,0-0.3,0.1-0.6,0.1h-6.6
		L530,99.8z"/>
	<path class="st5" d="M573.8,91.4c-0.8-2.7-2.1-4.8-3.8-6.3c-1.8-1.5-3.8-2.3-6.1-2.3c-0.6,0-1.3,0.1-2,0.2
		c-3.3,0.7-5.6,2.2-7.1,4.5c-1.4,2.2-2.2,4.3-2.3,6.2c-0.1,1.8-0.2,3.2-0.2,4.1c0,7.8,2.5,16.3,7.4,25.3c1.2,2.3,2.4,4.6,3.4,6.9
		c1.4,3.2,2.2,6,2.2,8.3v1.8c0,0.8-0.4,1.5-1.1,2c-0.6,0.4-1.1,0.6-1.7,0.6c-0.6,0-1.2-0.3-1.9-0.8l0,0c-0.3-0.3-0.5-0.4-0.5-0.5
		c-0.1-0.2-0.2-0.4-0.3-0.6c-0.1-0.4-0.4-0.8-0.7-1.2c-0.7-1-1.7-1.5-2.9-1.5c-1.5,0-2.4,0.6-2.8,1.2c-0.6,0.7-0.9,1.5-0.9,2.2
		c0,0.5,0.1,1,0.3,1.6c1.6,4.3,4.7,6.5,9.1,6.5h0l1.1-0.1c6.2-0.6,9.5-3.9,9.5-9.8c0-4.4-1.4-9.4-4.1-14.9l-4.4-8.9
		c-3-6.1-4.6-12-4.6-17.4l0-2.4c0-1.4,0.3-2.7,1-4c0.7-1.3,1.7-1.9,3.2-1.9c0.5,0,2,0,3.1,3.4c0.8,2.5,2.5,2.9,3.4,2.9
		c2.3,0,3.1-1,3.4-1.8l0,0c0.2-0.6,0.3-1.2,0.3-1.7C574.1,92.5,574,92,573.8,91.4z"/>
</g>
<text transform="matrix(1 0 0 1 200.7723 275.6262)" class="st5 st6 st7">Games Studio</text>
<path class="st5" d="M360.3,124.3L360.3,124.3c-0.5-1-1.2-1.6-2-1.9c-0.9-0.4-1.9-0.4-2.9-0.1c0.1-8.7,0.2-14.2,0.2-24.2
	c0-2.5-1.4-4.1-4-4.3l-0.1,0c-1,0-1.8,0.3-2.5,0.9c-0.9,0.8-1.4,1.8-1.5,3l0,0.1c0,1.2,0,2.7,0,4.5c0,4.6,0,1.1-0.1,9.3l-0.1,12.9
	c0,0.6-0.1,1.1-0.3,1.5c-0.1,0.2-0.4,0.5-1.4,0.8c-0.3,0.1-0.5,0.1-0.8,0.1c-0.5,0-2.6-0.2-3-0.5c-0.7-0.7-1.2-1.5-1.5-2.5
	c-1.1-3.9-1.7-7.9-1.7-12.1c0-4.3-0.1-7.3-0.1-9c0-4.6,0.1-9,0.3-13.1c0.1-2.7,0.1-4.2,0.1-4.8c0-0.8-0.1-1.5-0.4-2.2
	c-0.3-0.9-1-1.5-2.1-2l-0.1,0c-1.3-0.5-2.6-0.3-3.6,0.5c-0.9,0.7-1.5,1.8-1.6,3l0,0c-0.3,4.6-0.4,10.9-0.4,18.8
	c0,6.5,0.3,12,0.8,16.5c0.4,4.2,1.4,7.5,3,9.8c2.2,3.3,6.9,4.9,10.6,4.9c0.6,0,1.3-0.1,1.9-0.2c0.1,0,0.2,0,0.3,0c0,0,0,0.1,0,0.1
	c0,0.3-0.1,0.6-0.1,1c-0.1,5.6-0.2,9.9-0.2,12.7c0,2.3,1.3,3.8,3.5,4.2l0.1,0h0.4c1,0,1.9-0.3,2.7-1c0.8-0.8,1.3-1.8,1.4-2.9
	c0-1.5,0-3.7,0-6.6c0.1-3.9,0.1-7.2,0.2-10.2l3.1-1.8C360.5,128.7,361.3,126.6,360.3,124.3z"/>
</svg>
